<svg width="600" height="400" viewBox="0 0 600 400" xmlns="http://www.w3.org/2000/svg">
  <defs>
    <linearGradient id="bg3" x1="0%" y1="0%" x2="100%" y2="100%">
      <stop offset="0%" style="stop-color:#3b82f6;stop-opacity:1" />
      <stop offset="100%" style="stop-color:#60a5fa;stop-opacity:1" />
    </linearGradient>
  </defs>
  <rect width="600" height="400" fill="url(#bg3)"/>
  <g transform="translate(250,140)">
    <rect x="0" y="0" width="100" height="120" fill="none" stroke="#ffffff" stroke-width="3" rx="8"/>
    <circle cx="50" cy="30" r="15" fill="#ffffff" opacity="0.8"/>
    <rect x="20" y="55" width="60" height="8" fill="#ffffff" opacity="0.6" rx="4"/>
    <rect x="20" y="70" width="40" height="8" fill="#ffffff" opacity="0.6" rx="4"/>
    <rect x="20" y="85" width="50" height="8" fill="#ffffff" opacity="0.6" rx="4"/>
    <rect x="20" y="100" width="35" height="8" fill="#ffffff" opacity="0.6" rx="4"/>
  </g>
  <g transform="translate(150,200)">
    <path d="M0,20 Q20,0 40,20 Q60,40 80,20 Q100,0 120,20" fill="none" stroke="#ffffff" stroke-width="3" opacity="0.7"/>
    <circle cx="0" cy="20" r="4" fill="#ffffff"/>
    <circle cx="40" cy="20" r="4" fill="#ffffff"/>
    <circle cx="80" cy="20" r="4" fill="#ffffff"/>
    <circle cx="120" cy="20" r="4" fill="#ffffff"/>
  </g>
  <text x="300" y="320" text-anchor="middle" fill="#ffffff" font-family="Arial, sans-serif" font-size="24" font-weight="bold">Sector Salud</text>
  <text x="300" y="350" text-anchor="middle" fill="#e2e8f0" font-family="Arial, sans-serif" font-size="16">Plataforma Segura HIPAA</text>
  <g transform="translate(480,80)">
    <rect x="0" y="0" width="60" height="60" fill="none" stroke="#ffffff" stroke-width="2" rx="30"/>
    <path d="M20,30 L40,30 M30,20 L30,40" stroke="#ffffff" stroke-width="3" stroke-linecap="round"/>
  </g>
</svg>