<?xml version="1.0" encoding="UTF-8" standalone="no"?>
<svg
   xmlns:dc="http://purl.org/dc/elements/1.1/"
   xmlns:cc="http://creativecommons.org/ns#"
   xmlns:rdf="http://www.w3.org/1999/02/22-rdf-syntax-ns#"
   xmlns:svg="http://www.w3.org/2000/svg"
   xmlns="http://www.w3.org/2000/svg"
   id="svg106"
   xml:space="preserve"
   viewBox="0 0 1403 411"
   height="411"
   width="1403"
   version="1.1"><metadata
     id="metadata110"><rdf:RDF><cc:Work
         rdf:about=""><dc:format>image/svg+xml</dc:format><dc:type
           rdf:resource="http://purl.org/dc/dcmitype/StillImage" /></cc:Work></rdf:RDF></metadata><desc
     id="desc2">Created with Fabric.js 2.4.6</desc><defs
     id="defs4" /><g
     id="g92"
     transform="matrix(-1.51,2.74,-2.74,-1.51,1208.02,203.96)"><linearGradient
       y2="-51.564999"
       x2="51.5"
       y1="51.564999"
       x1="-51.5"
       gradientUnits="userSpaceOnUse"
       id="SVGID_32"><stop
         id="stop6"
         style="stop-color:rgb(103,140,154);stop-opacity: 1"
         offset="19%" /><stop
         id="stop8"
         style="stop-color:rgb(17,12,129);stop-opacity: 1"
         offset="94%" /></linearGradient><g
       id="g18"
       transform="matrix(3.13,0,0,3.13,-35.91,35.96)"><linearGradient
         y2="23"
         x2="9"
         y1="32"
         x1="0"
         gradientUnits="userSpaceOnUse"
         id="SVGID_23"><stop
           id="stop11"
           style="stop-color:rgb(103,140,154);stop-opacity: 1"
           offset="19%" /><stop
           id="stop13"
           style="stop-color:rgb(17,12,129);stop-opacity: 1"
           offset="94%" /></linearGradient><path
         id="path16"
         d="M 6,32 H 3 C 1.35,32 0,30.65 0,29 v -3 c 0,-1.65 1.35,-3 3,-3 h 3 c 1.65,0 3,1.35 3,3 v 3 c 0,1.65 -1.35,3 -3,3 z M 3,25 c -0.55,0 -1,0.45 -1,1 v 3 c 0,0.55 0.45,1 1,1 h 3 c 0.55,0 1,-0.45 1,-1 V 26 C 7,25.45 6.55,25 6,25 Z"
         transform="translate(-4.5,-27.5)"
         style="opacity:1;fill:url(#SVGID_23);fill-rule:nonzero;stroke:none;stroke-width:1;stroke-linecap:butt;stroke-linejoin:miter;stroke-miterlimit:4;stroke-dasharray:none;stroke-dashoffset:0" /></g><g
       id="g27"
       transform="matrix(3.13,0,0,3.13,-1.54,35.96)"><linearGradient
         y2="23"
         x2="20"
         y1="32"
         x1="11"
         gradientUnits="userSpaceOnUse"
         id="SVGID_24"><stop
           id="stop20"
           style="stop-color:rgb(103,140,154);stop-opacity: 1"
           offset="19%" /><stop
           id="stop22"
           style="stop-color:rgb(17,12,129);stop-opacity: 1"
           offset="94%" /></linearGradient><path
         id="path25"
         d="m 17,32 h -3 c -1.65,0 -3,-1.35 -3,-3 v -3 c 0,-1.65 1.35,-3 3,-3 h 3 c 1.65,0 3,1.35 3,3 v 3 c 0,1.65 -1.35,3 -3,3 z m -3,-7 c -0.55,0 -1,0.45 -1,1 v 3 c 0,0.55 0.45,1 1,1 h 3 c 0.55,0 1,-0.45 1,-1 v -3 c 0,-0.55 -0.45,-1 -1,-1 z"
         transform="translate(-15.5,-27.5)"
         style="opacity:1;fill:url(#SVGID_24);fill-rule:nonzero;stroke:none;stroke-width:1;stroke-linecap:butt;stroke-linejoin:miter;stroke-miterlimit:4;stroke-dasharray:none;stroke-dashoffset:0" /></g><g
       id="g36"
       transform="matrix(3.13,0,0,3.13,32.84,35.96)"><linearGradient
         y2="23"
         x2="31"
         y1="32"
         x1="22"
         gradientUnits="userSpaceOnUse"
         id="SVGID_25"><stop
           id="stop29"
           style="stop-color:rgb(103,140,154);stop-opacity: 1"
           offset="19%" /><stop
           id="stop31"
           style="stop-color:rgb(17,12,129);stop-opacity: 1"
           offset="94%" /></linearGradient><path
         id="path34"
         d="m 28,32 h -3 c -1.65,0 -3,-1.35 -3,-3 v -3 c 0,-1.65 1.35,-3 3,-3 h 3 c 1.65,0 3,1.35 3,3 v 3 c 0,1.65 -1.35,3 -3,3 z m -3,-7 c -0.55,0 -1,0.45 -1,1 v 3 c 0,0.55 0.45,1 1,1 h 3 c 0.55,0 1,-0.45 1,-1 v -3 c 0,-0.55 -0.45,-1 -1,-1 z"
         transform="translate(-26.5,-27.5)"
         style="opacity:1;fill:url(#SVGID_25);fill-rule:nonzero;stroke:none;stroke-width:1;stroke-linecap:butt;stroke-linejoin:miter;stroke-miterlimit:4;stroke-dasharray:none;stroke-dashoffset:0" /></g><g
       id="g45"
       transform="matrix(3.13,0,0,3.13,-35.91,1.59)"><linearGradient
         y2="12"
         x2="9"
         y1="21"
         x1="0"
         gradientUnits="userSpaceOnUse"
         id="SVGID_26"><stop
           id="stop38"
           style="stop-color:rgb(103,140,154);stop-opacity: 1"
           offset="19%" /><stop
           id="stop40"
           style="stop-color:rgb(17,12,129);stop-opacity: 1"
           offset="94%" /></linearGradient><path
         id="path43"
         d="M 6,21 H 3 C 1.35,21 0,19.65 0,18 v -3 c 0,-1.65 1.35,-3 3,-3 h 3 c 1.65,0 3,1.35 3,3 v 3 c 0,1.65 -1.35,3 -3,3 z M 3,14 c -0.55,0 -1,0.45 -1,1 v 3 c 0,0.55 0.45,1 1,1 h 3 c 0.55,0 1,-0.45 1,-1 V 15 C 7,14.45 6.55,14 6,14 Z"
         transform="translate(-4.5,-16.5)"
         style="opacity:1;fill:url(#SVGID_26);fill-rule:nonzero;stroke:none;stroke-width:1;stroke-linecap:butt;stroke-linejoin:miter;stroke-miterlimit:4;stroke-dasharray:none;stroke-dashoffset:0" /></g><g
       id="g54"
       transform="matrix(3.13,0,0,3.13,-1.54,1.59)"><linearGradient
         y2="12"
         x2="20"
         y1="21"
         x1="11"
         gradientUnits="userSpaceOnUse"
         id="SVGID_27"><stop
           id="stop47"
           style="stop-color:rgb(103,140,154);stop-opacity: 1"
           offset="19%" /><stop
           id="stop49"
           style="stop-color:rgb(17,12,129);stop-opacity: 1"
           offset="94%" /></linearGradient><path
         id="path52"
         d="m 17,21 h -3 c -1.65,0 -3,-1.35 -3,-3 v -3 c 0,-1.65 1.35,-3 3,-3 h 3 c 1.65,0 3,1.35 3,3 v 3 c 0,1.65 -1.35,3 -3,3 z m -3,-7 c -0.55,0 -1,0.45 -1,1 v 3 c 0,0.55 0.45,1 1,1 h 3 c 0.55,0 1,-0.45 1,-1 v -3 c 0,-0.55 -0.45,-1 -1,-1 z"
         transform="translate(-15.5,-16.5)"
         style="opacity:1;fill:url(#SVGID_27);fill-rule:nonzero;stroke:none;stroke-width:1;stroke-linecap:butt;stroke-linejoin:miter;stroke-miterlimit:4;stroke-dasharray:none;stroke-dashoffset:0" /></g><g
       id="g63"
       transform="matrix(3.13,0,0,3.13,32.84,1.59)"><linearGradient
         y2="12"
         x2="31"
         y1="21"
         x1="22"
         gradientUnits="userSpaceOnUse"
         id="SVGID_28"><stop
           id="stop56"
           style="stop-color:rgb(103,140,154);stop-opacity: 1"
           offset="19%" /><stop
           id="stop58"
           style="stop-color:rgb(17,12,129);stop-opacity: 1"
           offset="94%" /></linearGradient><path
         id="path61"
         d="m 28,21 h -3 c -1.65,0 -3,-1.35 -3,-3 v -3 c 0,-1.65 1.35,-3 3,-3 h 3 c 1.65,0 3,1.35 3,3 v 3 c 0,1.65 -1.35,3 -3,3 z m -3,-7 c -0.55,0 -1,0.45 -1,1 v 3 c 0,0.55 0.45,1 1,1 h 3 c 0.55,0 1,-0.45 1,-1 v -3 c 0,-0.55 -0.45,-1 -1,-1 z"
         transform="translate(-26.5,-16.5)"
         style="opacity:1;fill:url(#SVGID_28);fill-rule:nonzero;stroke:none;stroke-width:1;stroke-linecap:butt;stroke-linejoin:miter;stroke-miterlimit:4;stroke-dasharray:none;stroke-dashoffset:0" /></g><g
       id="g72"
       transform="matrix(3.13,0,0,3.13,-35.91,-32.79)"><linearGradient
         y2="1"
         x2="9"
         y1="10"
         x1="0"
         gradientUnits="userSpaceOnUse"
         id="SVGID_29"><stop
           id="stop65"
           style="stop-color:rgb(103,140,154);stop-opacity: 1"
           offset="19%" /><stop
           id="stop67"
           style="stop-color:rgb(17,12,129);stop-opacity: 1"
           offset="94%" /></linearGradient><path
         id="path70"
         d="M 6,10 H 3 C 1.35,10 0,8.65 0,7 V 4 C 0,2.35 1.35,1 3,1 H 6 C 7.65,1 9,2.35 9,4 V 7 C 9,8.65 7.65,10 6,10 Z M 3,3 C 2.45,3 2,3.45 2,4 V 7 C 2,7.55 2.45,8 3,8 H 6 C 6.55,8 7,7.55 7,7 V 4 C 7,3.45 6.55,3 6,3 Z"
         transform="translate(-4.5,-5.5)"
         style="opacity:1;fill:url(#SVGID_29);fill-rule:nonzero;stroke:none;stroke-width:1;stroke-linecap:butt;stroke-linejoin:miter;stroke-miterlimit:4;stroke-dasharray:none;stroke-dashoffset:0" /></g><g
       id="g81"
       transform="matrix(3.13,0,0,3.13,-1.54,-32.79)"><linearGradient
         y2="1"
         x2="20"
         y1="10"
         x1="11"
         gradientUnits="userSpaceOnUse"
         id="SVGID_30"><stop
           id="stop74"
           style="stop-color:rgb(103,140,154);stop-opacity: 1"
           offset="19%" /><stop
           id="stop76"
           style="stop-color:rgb(17,12,129);stop-opacity: 1"
           offset="94%" /></linearGradient><path
         id="path79"
         d="M 17,10 H 14 C 12.35,10 11,8.65 11,7 V 4 c 0,-1.65 1.35,-3 3,-3 h 3 c 1.65,0 3,1.35 3,3 v 3 c 0,1.65 -1.35,3 -3,3 z M 14,3 c -0.55,0 -1,0.45 -1,1 v 3 c 0,0.55 0.45,1 1,1 h 3 c 0.55,0 1,-0.45 1,-1 V 4 C 18,3.45 17.55,3 17,3 Z"
         transform="translate(-15.5,-5.5)"
         style="opacity:1;fill:url(#SVGID_30);fill-rule:nonzero;stroke:none;stroke-width:1;stroke-linecap:butt;stroke-linejoin:miter;stroke-miterlimit:4;stroke-dasharray:none;stroke-dashoffset:0" /></g><g
       id="g90"
       transform="matrix(3.13,0,0,3.13,34.25,-34.19)"><linearGradient
         y2="0"
         x2="31.950001"
         y1="10.1"
         x1="21.950001"
         gradientUnits="userSpaceOnUse"
         id="SVGID_31"><stop
           id="stop83"
           style="stop-color:rgb(103,140,154);stop-opacity: 1"
           offset="19%" /><stop
           id="stop85"
           style="stop-color:rgb(17,12,129);stop-opacity: 1"
           offset="94%" /></linearGradient><path
         id="path88"
         d="m 27.5,10.1 c 0,0 0,0 0,0 -0.52,0 -1.04,-0.14 -1.5,-0.4 L 23.4,8.2 C 22.71,7.8 22.21,7.15 22,6.38 21.8,5.6 21.9,4.79 22.3,4.1 L 23.8,1.5 C 24.34,0.57 25.33,0 26.4,0 c 0.52,0 1.04,0.14 1.5,0.4 l 2.6,1.5 c 0.69,0.4 1.19,1.05 1.4,1.82 C 32.1,4.5 32,5.31 31.6,6 l -1.5,2.6 c -0.54,0.92 -1.53,1.5 -2.6,1.5 z M 26.4,2 c -0.36,0 -0.69,0.19 -0.87,0.5 l -1.5,2.6 c -0.13,0.23 -0.17,0.5 -0.1,0.76 0.07,0.25 0.24,0.47 0.47,0.6 l 2.6,1.5 c 0.46,0.27 1.1,0.1 1.37,-0.37 l 1.5,-2.6 C 30,4.76 30.04,4.49 29.97,4.23 29.9,3.97 29.74,3.76 29.51,3.62 l -2.6,-1.5 C 26.75,2.05 26.58,2 26.4,2 Z"
         transform="translate(-26.95,-5.05)"
         style="opacity:1;fill:url(#SVGID_31);fill-rule:nonzero;stroke:none;stroke-width:1;stroke-linecap:butt;stroke-linejoin:miter;stroke-miterlimit:4;stroke-dasharray:none;stroke-dashoffset:0" /></g></g><g
     id="g98"
     transform="translate(490.48,235.53)"><g
       id="text96"
       style="font-style:normal;font-weight:normal;font-size:275px;font-family:Ubuntu;white-space:pre;opacity:1;fill:#1d295b;fill-rule:nonzero;stroke:none;stroke-width:1;stroke-linecap:butt;stroke-linejoin:miter;stroke-miterlimit:4;stroke-dasharray:none;stroke-dashoffset:0"
       aria-label="CifraDO"><path
         id="path112"
         style=""
         d="m -397.38001,90.514999 q -20.075,0 -36.575,-6.6 -16.5,-6.6 -28.325,-19.25 -11.825,-12.65 -18.425,-31.075 -6.325,-18.7 -6.325,-42.6249996 0,-23.9250004 7.15,-42.3500004 7.425,-18.7 19.8,-31.35 12.375,-12.65 28.875,-19.249999 16.5,-6.6 35.2,-6.6 11.825,0 21.175,1.65 9.625,1.65 16.5,3.85 7.15,2.2 11.55,4.399999 4.4,2.2 6.05,3.3 l -7.7,22 q -2.475,-1.65 -7.15,-3.575 -4.675,-1.925 -10.725,-3.85 -5.775,-1.925 -12.925,-3.025 -6.875,-1.375 -14.025,-1.375 -15.125,0 -27.225,5.225 -12.1,5.225 -20.625,15.125 -8.525,9.9 -13.2,24.2 -4.4,14.025 -4.4,31.6250004 0,17.05 3.85,31.0749996 4.125,14.025 12.1,24.2 7.975,9.9 19.8,15.4 12.1,5.5 28.05,5.5 18.425,0 30.525,-3.85 12.1,-3.85 18.15,-6.875 l 6.875,22 q -1.925,1.375 -6.875,3.575 -4.95,1.925 -12.375,3.85 -7.425,1.925 -17.325,3.3 -9.9,1.375 -21.45,1.375 z" /><path
         id="path114"
         style=""
         d="m -285.14134,86.389999 h -25.575 v -143 h 25.575 z m -12.925,-168.85 q -6.875,0 -11.825,-4.4 -4.675,-4.675 -4.675,-12.375 0,-7.699999 4.675,-12.099999 4.95,-4.675 11.825,-4.675 6.875,0 11.55,4.675 4.95,4.4 4.95,12.099999 0,7.7 -4.95,12.375 -4.675,4.4 -11.55,4.4 z" /><path
         id="path116"
         style=""
         d="m -185.06712,-127.01 q 11.275,0 19.25,1.65 8.25,1.65 11.55,3.025 l -4.675,22 q -3.3,-1.65 -9.35,-3.025 -6.05,-1.65 -14.85,-1.65 -17.875,0 -25.025,9.899999 -7.15,9.625 -7.15,26.125 v 12.375 h 55 v 21.45 h -55 v 121.55 h -25.575 v -155.925 q 0,-27.5 13.475,-42.349999 13.475,-15.125 42.35,-15.125 z" /><path
         id="path118"
         style=""
         d="m -81.744464,-59.635001 q 3.3,0 7.425,0.55 4.4,0.275 8.525,1.1 4.125,0.55 7.425,1.375 3.575,0.55 5.225,1.1 l -4.4,22.275 q -3.025,-1.1 -10.175,-2.475 -6.875,-1.65 -17.875,-1.65 -7.15,0 -14.3,1.65 -6.874996,1.375 -9.074996,1.925 v 120.175 h -25.575 v -136.95 q 9.075,-3.3 22.55,-6.05 13.474996,-3.025 30.249996,-3.025 z" /><path
         id="path120"
         style=""
         d="m 20.203192,67.964999 q 9.075,0 15.95,-0.275 7.15,-0.55 11.825,-1.65 v -42.625 q -2.75,-1.375 -9.075,-2.2 -6.05,-1.1 -14.85,-1.1 -5.775,0 -12.375,0.825 -6.3249999,0.825 -11.82499986,3.575 -5.22500004,2.475 -8.80000004,7.15 -3.5750001,4.4 -3.5750001,11.825 0,13.75 8.8000001,19.25 8.8,5.225 23.9249999,5.225 z m -2.2,-128.15 q 15.4,0 25.85,4.125 10.725,3.85 17.05,11.275 6.6,7.15 9.35,17.325 2.75,9.9 2.75,22.0000004 V 83.914999 q -3.3,0.55 -9.35,1.65 -5.775,0.825 -13.2,1.65 -7.425,0.825 -16.225,1.375 -8.525,0.825 -17.05,0.825 -12.0999999,0 -22.2749999,-2.475 -10.1750001,-2.475 -17.6000001,-7.7 -7.425,-5.5 -11.55,-14.3 -4.125,-8.8 -4.125,-21.175 0,-11.825 4.675,-20.35 4.95,-8.525 13.2,-13.7499996 8.25,-5.225 19.2500001,-7.7 11,-2.47500001 23.0999999,-2.47500001 3.85,0 7.975,0.55 4.125,0.275 7.7,1.10000001 3.85,0.55 6.6,1.1 2.75,0.55 3.85,0.825 v -7.15 q 0,-6.3250004 -1.375,-12.3750004 -1.375,-6.325 -4.95,-11 -3.575,-4.95 -9.9,-7.7 -6.05,-3.025 -15.95,-3.025 -12.6499999,0 -22.2749999,1.925 -9.3500001,1.65 -14.0250001,3.575 l -3.025,-21.175 q 4.95,-2.2 16.5000001,-4.125 11.55,-2.2 25.0249999,-2.2 z" /><path
         id="path122"
         style=""
         d="m 273.3364,-9.0350006 q 0,24.7499996 -7.7,43.1749996 -7.7,18.15 -21.725,30.25 -14.025,11.825 -33.55,17.875 -19.525,5.775 -42.9,5.775 -11.55,0 -25.575,-1.1 -13.75,-0.825 -25.025,-3.575 V -101.435 q 11.275,-2.75 25.025,-3.575 14.025,-1.1 25.575,-1.1 23.375,0 42.9,6.05 19.525,5.774999 33.55,17.874999 14.025,11.825 21.725,30.25 7.7,18.15 7.7,42.9000004 z M 169.6614,64.664999 q 37.95,0 56.65,-19.25 18.7,-19.525 18.7,-54.4499996 0,-34.9250004 -18.7,-54.1750004 -18.7,-19.525 -56.65,-19.525 -11.275,0 -17.6,0.275 -6.05,0.275 -8.525,0.55 v 145.75 q 2.475,0.275 8.525,0.55 6.325,0.275 17.6,0.275 z" /><path
         id="path124"
         style=""
         d="m 305.20632,-9.0350006 q 0,-24.4750004 7.15,-43.1750004 7.425,-18.7 19.8,-31.075 12.65,-12.65 29.15,-18.974999 16.775,-6.325 35.475,-6.325 18.425,0 34.65,6.325 16.5,6.324999 28.875,18.974999 12.375,12.375 19.525,31.075 7.425,18.7 7.425,43.1750004 0,24.4749996 -7.425,43.1749996 -7.15,18.7 -19.525,31.35 -12.375,12.375 -28.875,18.7 -16.225,6.325 -34.65,6.325 -18.7,0 -35.475,-6.325 -16.5,-6.325 -29.15,-18.7 -12.375,-12.65 -19.8,-31.35 -7.15,-18.7 -7.15,-43.1749996 z m 28.05,0 q 0,17.325 4.4,31.6249996 4.4,14.025 12.375,23.925 8.25,9.9 19.8,15.4 11.825,5.225 26.4,5.225 14.575,0 26.125,-5.225 11.55,-5.5 19.525,-15.4 8.25,-9.9 12.65,-23.925 4.4,-14.2999996 4.4,-31.6249996 0,-17.3250004 -4.4,-31.3500004 -4.4,-14.3 -12.65,-24.2 -7.975,-9.9 -19.525,-15.125 -11.55,-5.5 -26.125,-5.5 -14.575,0 -26.4,5.5 -11.55,5.225 -19.8,15.125 -7.975,9.9 -12.375,24.2 -4.4,14.025 -4.4,31.3500004 z" /></g></g><g
     id="g104"
     transform="translate(664.78,380.81)"><g
       id="text102"
       style="font-style:normal;font-weight:normal;font-size:89px;font-family:Ubuntu;white-space:pre;opacity:1;fill:#4b6392;fill-rule:nonzero;stroke:none;stroke-width:1;stroke-linecap:butt;stroke-linejoin:miter;stroke-miterlimit:4;stroke-dasharray:none;stroke-dashoffset:0"
       aria-label="Data Solutions"><path
         id="path127"
         style=""
         d="m -235.85499,-2.9230009 q 0,8.01 -2.492,13.9729999 -2.492,5.874 -7.031,9.79 -4.539,3.827 -10.858,5.785 -6.319,1.869 -13.884,1.869 -3.738,0 -8.277,-0.356 -4.45,-0.267 -8.099,-1.157 v -59.808 q 3.649,-0.89 8.099,-1.157 4.539,-0.356 8.277,-0.356 7.565,0 13.884,1.958 6.319,1.869 10.858,5.785 4.539,3.827 7.031,9.79 2.492,5.874 2.492,13.8840001 z m -33.553,23.8519999 q 12.282,0 18.334,-6.23 6.052,-6.3189999 6.052,-17.6219999 0,-11.3030001 -6.052,-17.5330001 -6.052,-6.319 -18.334,-6.319 -3.649,0 -5.696,0.089 -1.958,0.089 -2.759,0.178 v 47.17 q 0.801,0.089 2.759,0.178 2.047,0.089 5.696,0.089 z" /><path
         id="path129"
         style=""
         d="m -209.13553,21.996999 q 2.937,0 5.162,-0.089 2.314,-0.178 3.827,-0.534 V 7.5789991 q -0.89,-0.445 -2.937,-0.712 -1.958,-0.356 -4.806,-0.356 -1.869,0 -4.005,0.267 -2.047,0.267 -3.827,1.157 -1.691,0.801 -2.848,2.3139999 -1.157,1.424 -1.157,3.827 0,4.45 2.848,6.23 2.848,1.691 7.743,1.691 z m -0.712,-41.474 q 4.984,0 8.366,1.335 3.471,1.246 5.518,3.649 2.136,2.314 3.026,5.6070001 0.89,3.204 0.89,7.12 V 27.158999 q -1.068,0.178 -3.026,0.534 -1.869,0.267 -4.272,0.534 -2.403,0.267 -5.251,0.445 -2.759,0.267 -5.518,0.267 -3.916,0 -7.209,-0.801 -3.293,-0.801 -5.696,-2.492 -2.403,-1.78 -3.738,-4.628 -1.335,-2.848 -1.335,-6.853 0,-3.827 1.513,-6.5859999 1.602,-2.759 4.272,-4.45 2.67,-1.691 6.23,-2.49200002 3.56,-0.801 7.476,-0.801 1.246,0 2.581,0.178 1.335,0.089 2.492,0.356 1.246,0.178 2.136,0.356 0.89,0.178 1.246,0.267 V -1.3210009 q 0,-2.047 -0.445,-4.005 -0.445,-2.047 -1.602,-3.56 -1.157,-1.6020001 -3.204,-2.4920001 -1.958,-0.979 -5.162,-0.979 -4.094,0 -7.209,0.623 -3.026,0.534 -4.539,1.157 l -0.979,-6.853 q 1.602,-0.712 5.34,-1.335 3.738,-0.712 8.099,-0.712 z" /><path
         id="path131"
         style=""
         d="m -170.64442,-18.320001 h 17.533 v 6.942 h -17.533 V 9.9819991 q 0,3.4709999 0.534,5.7849999 0.534,2.225 1.602,3.56 1.068,1.246 2.67,1.78 1.602,0.534 3.738,0.534 3.738,0 5.963,-0.801 2.314,-0.89 3.204,-1.246 l 1.602,6.853 q -1.246,0.623 -4.361,1.513 -3.115,0.979 -7.12,0.979 -4.717,0 -7.832,-1.157 -3.026,-1.246 -4.895,-3.649 -1.869,-2.403 -2.67,-5.874 -0.712,-3.56 -0.712,-8.188 v -41.296 l 8.277,-1.424 z" /><path
         id="path133"
         style=""
         d="m -126.91482,21.996999 q 2.937,0 5.162,-0.089 2.314,-0.178 3.827,-0.534 V 7.5789991 q -0.89,-0.445 -2.937,-0.712 -1.958,-0.356 -4.806,-0.356 -1.869,0 -4.005,0.267 -2.047,0.267 -3.827,1.157 -1.691,0.801 -2.848,2.3139999 -1.157,1.424 -1.157,3.827 0,4.45 2.848,6.23 2.848,1.691 7.743,1.691 z m -0.712,-41.474 q 4.984,0 8.366,1.335 3.471,1.246 5.518,3.649 2.136,2.314 3.026,5.6070001 0.89,3.204 0.89,7.12 V 27.158999 q -1.068,0.178 -3.026,0.534 -1.869,0.267 -4.272,0.534 -2.403,0.267 -5.251,0.445 -2.759,0.267 -5.518,0.267 -3.916,0 -7.209,-0.801 -3.293,-0.801 -5.696,-2.492 -2.403,-1.78 -3.738,-4.628 -1.335,-2.848 -1.335,-6.853 0,-3.827 1.513,-6.5859999 1.602,-2.759 4.272,-4.45 2.67,-1.691 6.23,-2.49200002 3.56,-0.801 7.476,-0.801 1.246,0 2.581,0.178 1.335,0.089 2.492,0.356 1.246,0.178 2.136,0.356 0.89,0.178 1.246,0.267 V -1.3210009 q 0,-2.047 -0.445,-4.005 -0.445,-2.047 -1.602,-3.56 -1.157,-1.6020001 -3.204,-2.4920001 -1.958,-0.979 -5.162,-0.979 -4.094,0 -7.209,0.623 -3.026,0.534 -4.539,1.157 l -0.979,-6.853 q 1.602,-0.712 5.34,-1.335 3.738,-0.712 8.099,-0.712 z" /><path
         id="path135"
         style=""
         d="m -60.791994,21.818999 q 13.528,0 13.528,-9.256 0,-2.8479999 -1.246,-4.8059999 -1.157,-2.047 -3.204,-3.471 -2.047,-1.513 -4.717,-2.581 -2.581,-1.06800002 -5.518,-2.13600002 -3.382,-1.15699998 -6.408,-2.58099998 -3.026,-1.513 -5.251,-3.471 -2.225,-2.047 -3.56,-4.8060001 -1.246,-2.759 -1.246,-6.675 0,-8.099 5.518,-12.638 5.518,-4.539 15.219,-4.539 5.607,0 10.146,1.246 4.628,1.157 6.764,2.581 l -2.759,7.031 q -1.869,-1.157 -5.607,-2.225 -3.649,-1.157 -8.544,-1.157 -2.492,0 -4.628,0.534 -2.136,0.534 -3.738,1.602 -1.602,1.068 -2.581,2.759 -0.89,1.602 -0.89,3.827 0,2.492 0.979,4.183 0.979,1.691 2.759,3.026 1.78,1.246 4.094,2.3140001 2.403,1.068 5.251,2.136 4.005,1.602 7.298,3.204 3.382,1.602 5.785,3.82699998 2.492,2.22500002 3.827,5.34000002 1.335,3.026 1.335,7.3869999 0,8.099 -5.963,12.46 -5.874,4.361 -16.643,4.361 -3.649,0 -6.764,-0.534 -3.026,-0.445 -5.429,-1.068 -2.403,-0.712 -4.183,-1.424 -1.691,-0.801 -2.67,-1.335 l 2.581,-7.12 q 2.047,1.157 6.23,2.581 4.183,1.424 10.235,1.424 z" /><path
         id="path137"
         style=""
         d="m 12.477256,4.8199991 q 0,5.5179999 -1.602,9.9679999 -1.6019999,4.45 -4.5389999,7.654 -2.848,3.204 -6.853,4.984 -4.005,1.691 -8.722,1.691 -4.7170001,0 -8.7220001,-1.691 -4.005,-1.78 -6.942,-4.984 -2.848,-3.204 -4.45,-7.654 -1.602,-4.45 -1.602,-9.9679999 0,-5.42900002 1.602,-9.879 1.602,-4.539 4.45,-7.7430001 2.937,-3.204 6.942,-4.895 4.005,-1.78 8.7220001,-1.78 4.717,0 8.722,1.78 4.005,1.691 6.853,4.895 2.937,3.2040001 4.5389999,7.7430001 1.602,4.44999998 1.602,9.879 z m -8.6329999,0 q 0,-7.832 -3.56,-12.371 -3.471,-4.6280001 -9.523,-4.6280001 -6.0520001,0 -9.6120001,4.6280001 -3.471,4.539 -3.471,12.371 0,7.8319999 3.471,12.4599999 3.56,4.539 9.6120001,4.539 6.052,0 9.523,-4.539 3.56,-4.628 3.56,-12.4599999 z" /><path
         id="path139"
         style=""
         d="m 38.00635,28.849999 q -7.654,-0.178 -10.858,-3.293 -3.204,-3.115 -3.204,-9.701 v -55.536 l 8.277,-1.424 v 55.625 q 0,2.047 0.356,3.382 0.356,1.335 1.157,2.136 0.801,0.801 2.136,1.246 1.335,0.356 3.293,0.623 z" /><path
         id="path141"
         style=""
         d="m 85.304287,26.624999 q -2.848,0.712 -7.565,1.513 -4.628,0.801 -10.769,0.801 -5.34,0 -8.989,-1.513 -3.649,-1.602 -5.874,-4.45 -2.225,-2.848 -3.204,-6.675 -0.979,-3.916 -0.979,-8.6329999 V -18.320001 h 8.277 V 5.8879991 q 0,8.4549999 2.67,12.1039999 2.67,3.649 8.989,3.649 1.335,0 2.759,-0.089 1.424,-0.089 2.67,-0.178 1.246,-0.178 2.225,-0.267 1.068,-0.178 1.513,-0.356 v -39.071 h 8.277 z" /><path
         id="path143"
         style=""
         d="m 107.30676,-18.320001 h 17.533 v 6.942 h -17.533 V 9.9819991 q 0,3.4709999 0.534,5.7849999 0.534,2.225 1.602,3.56 1.068,1.246 2.67,1.78 1.602,0.534 3.738,0.534 3.738,0 5.963,-0.801 2.314,-0.89 3.204,-1.246 l 1.602,6.853 q -1.246,0.623 -4.361,1.513 -3.115,0.979 -7.12,0.979 -4.717,0 -7.832,-1.157 -3.026,-1.246 -4.895,-3.649 -1.869,-2.403 -2.670004,-5.874 -0.712,-3.56 -0.712,-8.188 v -41.296 l 8.277004,-1.424 z" /><path
         id="path145"
         style=""
         d="m 143.64935,27.959999 h -8.277 v -46.28 h 8.277 z m -4.183,-54.646 q -2.225,0 -3.827,-1.424 -1.513,-1.513 -1.513,-4.005 0,-2.492 1.513,-3.916 1.602,-1.513 3.827,-1.513 2.225,0 3.738,1.513 1.602,1.424 1.602,3.916 0,2.492 -1.602,4.005 -1.513,1.424 -3.738,1.424 z" /><path
         id="path147"
         style=""
         d="m 198.82101,4.8199991 q 0,5.5179999 -1.602,9.9679999 -1.602,4.45 -4.539,7.654 -2.848,3.204 -6.853,4.984 -4.005,1.691 -8.722,1.691 -4.717,0 -8.722,-1.691 -4.005,-1.78 -6.942,-4.984 -2.848,-3.204 -4.45,-7.654 -1.602,-4.45 -1.602,-9.9679999 0,-5.42900002 1.602,-9.879 1.602,-4.539 4.45,-7.7430001 2.937,-3.204 6.942,-4.895 4.005,-1.78 8.722,-1.78 4.717,0 8.722,1.78 4.005,1.691 6.853,4.895 2.937,3.2040001 4.539,7.7430001 1.602,4.44999998 1.602,9.879 z m -8.633,0 q 0,-7.832 -3.56,-12.371 -3.471,-4.6280001 -9.523,-4.6280001 -6.052,0 -9.612,4.6280001 -3.471,4.539 -3.471,12.371 0,7.8319999 3.471,12.4599999 3.56,4.539 9.612,4.539 6.052,0 9.523,-4.539 3.56,-4.628 3.56,-12.4599999 z" /><path
         id="path149"
         style=""
         d="m 210.4661,-16.985001 q 2.848,-0.712 7.565,-1.513 4.717,-0.801 10.858,-0.801 5.518,0 9.167,1.602 3.649,1.513 5.785,4.361 2.225,2.759 3.115,6.6750001 0.89,3.916 0.89,8.633 V 27.959999 h -8.277 V 3.7519991 q 0,-4.27200002 -0.623,-7.298 -0.534,-3.026 -1.869,-4.895 -1.335,-1.8690001 -3.56,-2.6700001 -2.225,-0.89 -5.518,-0.89 -1.335,0 -2.759,0.089 -1.424,0.089 -2.759,0.267 -1.246,0.089 -2.314,0.267 -0.979,0.178 -1.424,0.267 v 39.071 h -8.277 z" /><path
         id="path151"
         style=""
         d="m 272.34057,21.996999 q 5.073,0 7.476,-1.335 2.492,-1.335 2.492,-4.272 0,-3.026 -2.403,-4.806 -2.403,-1.7799999 -7.921,-4.0049999 -2.67,-1.068 -5.162,-2.136 -2.403,-1.157 -4.183,-2.67 -1.78,-1.513 -2.848,-3.64900002 -1.068,-2.13599998 -1.068,-5.25099998 0,-6.1410001 4.539,-9.7010001 4.539,-3.649 12.371,-3.649 1.958,0 3.916,0.267 1.958,0.178 3.649,0.534 1.691,0.267 2.937,0.623 1.335,0.356 2.047,0.623 l -1.513,7.12 q -1.335,-0.712 -4.183,-1.424 -2.848,-0.801 -6.853,-0.801 -3.471,0 -6.052,1.424 -2.581,1.3350001 -2.581,4.2720001 0,1.513 0.534,2.67 0.623,1.157 1.78,2.136 1.246,0.89 3.026,1.69099998 1.78,0.801 4.272,1.69100002 3.293,1.246 5.874,2.492 2.581,1.157 4.361,2.759 1.869,1.602 2.848,3.9159999 0.979,2.225 0.979,5.518 0,6.408 -4.806,9.701 -4.717,3.293 -13.528,3.293 -6.141,0 -9.612,-1.068 -3.471,-0.979 -4.717,-1.513 l 1.513,-7.12 q 1.424,0.534 4.539,1.602 3.115,1.068 8.277,1.068 z" /></g></g></svg>